<svg width="78" height="34" viewBox="0 0 78 34" fill="none" xmlns="http://www.w3.org/2000/svg">
<path d="M16.7383 21.8867V26H3.85352V21.8867H16.7383ZM5.55859 0.40625V26H0.285156V0.40625H5.55859ZM18.6367 16.6836V16.3145C18.6367 14.9199 18.8359 13.6367 19.2344 12.4648C19.6328 11.2812 20.2129 10.2559 20.9746 9.38867C21.7363 8.52148 22.6738 7.84766 23.7871 7.36719C24.9004 6.875 26.1777 6.62891 27.6191 6.62891C29.0605 6.62891 30.3438 6.875 31.4688 7.36719C32.5938 7.84766 33.5371 8.52148 34.2988 9.38867C35.0723 10.2559 35.6582 11.2812 36.0566 12.4648C36.4551 13.6367 36.6543 14.9199 36.6543 16.3145V16.6836C36.6543 18.0664 36.4551 19.3496 36.0566 20.5332C35.6582 21.7051 35.0723 22.7305 34.2988 23.6094C33.5371 24.4766 32.5996 25.1504 31.4863 25.6309C30.373 26.1113 29.0957 26.3516 27.6543 26.3516C26.2129 26.3516 24.9297 26.1113 23.8047 25.6309C22.6914 25.1504 21.748 24.4766 20.9746 23.6094C20.2129 22.7305 19.6328 21.7051 19.2344 20.5332C18.8359 19.3496 18.6367 18.0664 18.6367 16.6836ZM23.6992 16.3145V16.6836C23.6992 17.4805 23.7695 18.2246 23.9102 18.916C24.0508 19.6074 24.2734 20.2168 24.5781 20.7441C24.8945 21.2598 25.3047 21.6641 25.8086 21.957C26.3125 22.25 26.9277 22.3965 27.6543 22.3965C28.3574 22.3965 28.9609 22.25 29.4648 21.957C29.9688 21.6641 30.373 21.2598 30.6777 20.7441C30.9824 20.2168 31.2051 19.6074 31.3457 18.916C31.498 18.2246 31.5742 17.4805 31.5742 16.6836V16.3145C31.5742 15.541 31.498 14.8145 31.3457 14.1348C31.2051 13.4434 30.9766 12.834 30.6602 12.3066C30.3555 11.7676 29.9512 11.3457 29.4473 11.041C28.9434 10.7363 28.334 10.584 27.6191 10.584C26.9043 10.584 26.2949 10.7363 25.791 11.041C25.2988 11.3457 24.8945 11.7676 24.5781 12.3066C24.2734 12.834 24.0508 13.4434 23.9102 14.1348C23.7695 14.8145 23.6992 15.541 23.6992 16.3145ZM51.8066 6.98047H56.3945V25.3672C56.3945 27.1016 56.0078 28.5723 55.2344 29.7793C54.4727 30.998 53.4062 31.918 52.0352 32.5391C50.6641 33.1719 49.0703 33.4883 47.2539 33.4883C46.457 33.4883 45.6133 33.3828 44.7227 33.1719C43.8438 32.9609 43 32.6328 42.1914 32.1875C41.3945 31.7422 40.7266 31.1797 40.1875 30.5L42.4199 27.5117C43.0059 28.1914 43.6855 28.7188 44.459 29.0938C45.2324 29.4805 46.0879 29.6738 47.0254 29.6738C47.9395 29.6738 48.7129 29.5039 49.3457 29.1641C49.9785 28.8359 50.4648 28.3496 50.8047 27.7051C51.1445 27.0723 51.3145 26.3047 51.3145 25.4023V11.375L51.8066 6.98047ZM39.0098 16.7188V16.3496C39.0098 14.8965 39.1855 13.5781 39.5371 12.3945C39.9004 11.1992 40.4102 10.1738 41.0664 9.31836C41.7344 8.46289 42.543 7.80078 43.4922 7.33203C44.4414 6.86328 45.5137 6.62891 46.709 6.62891C47.9746 6.62891 49.0352 6.86328 49.8906 7.33203C50.7461 7.80078 51.4492 8.46875 52 9.33594C52.5508 10.1914 52.9785 11.2051 53.2832 12.377C53.5996 13.5371 53.8457 14.8086 54.0215 16.1914V17C53.8457 18.3242 53.582 19.5547 53.2305 20.6914C52.8789 21.8281 52.416 22.8242 51.8418 23.6797C51.2676 24.5234 50.5527 25.1797 49.6973 25.6484C48.8535 26.1172 47.8457 26.3516 46.6738 26.3516C45.502 26.3516 44.4414 26.1113 43.4922 25.6309C42.5547 25.1504 41.752 24.4766 41.084 23.6094C40.416 22.7422 39.9004 21.7227 39.5371 20.5508C39.1855 19.3789 39.0098 18.1016 39.0098 16.7188ZM44.0723 16.3496V16.7188C44.0723 17.5039 44.1484 18.2363 44.3008 18.916C44.4531 19.5957 44.6875 20.1992 45.0039 20.7266C45.332 21.2422 45.7363 21.6465 46.2168 21.9395C46.709 22.2207 47.2891 22.3613 47.957 22.3613C48.8828 22.3613 49.6387 22.168 50.2246 21.7812C50.8105 21.3828 51.25 20.8379 51.543 20.1465C51.8359 19.4551 52.0059 18.6582 52.0527 17.7559V15.4531C52.0293 14.7148 51.9297 14.0527 51.7539 13.4668C51.5781 12.8691 51.332 12.3594 51.0156 11.9375C50.6992 11.5156 50.2891 11.1875 49.7852 10.9531C49.2812 10.7188 48.6836 10.6016 47.9922 10.6016C47.3242 10.6016 46.7441 10.7539 46.252 11.0586C45.7715 11.3516 45.3672 11.7559 45.0391 12.2715C44.7227 12.7871 44.4824 13.3965 44.3184 14.0996C44.1543 14.791 44.0723 15.541 44.0723 16.3496ZM59.5234 16.6836V16.3145C59.5234 14.9199 59.7227 13.6367 60.1211 12.4648C60.5195 11.2812 61.0996 10.2559 61.8613 9.38867C62.623 8.52148 63.5605 7.84766 64.6738 7.36719C65.7871 6.875 67.0645 6.62891 68.5059 6.62891C69.9473 6.62891 71.2305 6.875 72.3555 7.36719C73.4805 7.84766 74.4238 8.52148 75.1855 9.38867C75.959 10.2559 76.5449 11.2812 76.9434 12.4648C77.3418 13.6367 77.541 14.9199 77.541 16.3145V16.6836C77.541 18.0664 77.3418 19.3496 76.9434 20.5332C76.5449 21.7051 75.959 22.7305 75.1855 23.6094C74.4238 24.4766 73.4863 25.1504 72.373 25.6309C71.2598 26.1113 69.9824 26.3516 68.541 26.3516C67.0996 26.3516 65.8164 26.1113 64.6914 25.6309C63.5781 25.1504 62.6348 24.4766 61.8613 23.6094C61.0996 22.7305 60.5195 21.7051 60.1211 20.5332C59.7227 19.3496 59.5234 18.0664 59.5234 16.6836ZM64.5859 16.3145V16.6836C64.5859 17.4805 64.6562 18.2246 64.7969 18.916C64.9375 19.6074 65.1602 20.2168 65.4648 20.7441C65.7812 21.2598 66.1914 21.6641 66.6953 21.957C67.1992 22.25 67.8145 22.3965 68.541 22.3965C69.2441 22.3965 69.8477 22.25 70.3516 21.957C70.8555 21.6641 71.2598 21.2598 71.5645 20.7441C71.8691 20.2168 72.0918 19.6074 72.2324 18.916C72.3848 18.2246 72.4609 17.4805 72.4609 16.6836V16.3145C72.4609 15.541 72.3848 14.8145 72.2324 14.1348C72.0918 13.4434 71.8633 12.834 71.5469 12.3066C71.2422 11.7676 70.8379 11.3457 70.334 11.041C69.8301 10.7363 69.2207 10.584 68.5059 10.584C67.791 10.584 67.1816 10.7363 66.6777 11.041C66.1855 11.3457 65.7812 11.7676 65.4648 12.3066C65.1602 12.834 64.9375 13.4434 64.7969 14.1348C64.6562 14.8145 64.5859 15.541 64.5859 16.3145Z" fill="black"/>
</svg>
