  <svg xmlns="http://www.w3.org/2000/svg" width="240" height="60" viewBox="0 0 981 312" version="1.1"><path d="M 159.642 10.750 C 159.371 11.713, 157.982 16.419, 156.555 21.208 C 153.609 31.099, 155.664 29.880, 138.500 31.917 C 133.550 32.504, 125.900 34.106, 121.500 35.477 C 117.100 36.848, 113.030 37.977, 112.456 37.985 C 111.881 37.993, 108.564 34.156, 105.084 29.457 C 101.604 24.759, 98.459 21.046, 98.095 21.207 C 93.918 23.055, 65.079 41.804, 65.045 42.695 C 65.020 43.352, 66.534 47.255, 68.409 51.369 C 73.632 62.831, 73.806 61.624, 65.699 70.130 C 59.089 77.066, 49.954 89.351, 48.404 93.388 C 47.598 95.489, 45.338 95.422, 34.073 92.963 C 28.940 91.843, 24.638 91.055, 24.513 91.213 C 24.387 91.371, 21.560 99.375, 18.230 109 C 14.900 118.625, 11.918 127.175, 11.603 128 C 11.176 129.119, 13.633 130.716, 21.265 134.283 L 31.500 139.066 31.573 155.783 C 31.613 164.977, 32.132 174.430, 32.726 176.790 L 33.805 181.079 23.653 186.155 C 18.069 188.946, 13.380 191.336, 13.233 191.465 C 13.086 191.595, 14.711 196.156, 16.843 201.600 C 18.976 207.045, 22.246 215.485, 24.110 220.356 C 25.975 225.227, 28.054 229.435, 28.731 229.706 C 29.771 230.123, 44.058 226.493, 49.052 224.544 C 50.169 224.108, 51.983 225.979, 55.522 231.219 C 58.227 235.224, 64.340 242.361, 69.105 247.079 L 77.770 255.658 74.001 264.579 C 71.928 269.486, 69.957 274.410, 69.621 275.521 C 69.090 277.280, 71.058 278.665, 84.755 286.171 C 93.415 290.917, 101.487 295.297, 102.694 295.905 C 104.726 296.929, 105.354 296.328, 111.210 287.755 C 118.508 277.072, 117.323 277.443, 133.500 280.782 C 139 281.918, 146.848 283.219, 150.941 283.673 L 158.381 284.500 161.791 295.500 C 163.666 301.550, 165.308 306.615, 165.439 306.755 C 165.693 307.028, 201.296 300.268, 204.252 299.387 C 205.431 299.035, 205.860 298.151, 205.562 296.682 C 205.319 295.482, 204.854 289.987, 204.530 284.471 L 203.939 274.441 213.115 269.971 C 218.162 267.512, 226.112 262.903, 230.782 259.729 L 239.273 253.957 249.265 260.479 C 254.760 264.065, 259.536 266.981, 259.878 266.958 C 260.220 266.935, 266.206 259.847, 273.181 251.208 L 285.862 235.500 277.347 226.896 L 268.831 218.291 272.794 210.396 C 276.566 202.882, 283 184.657, 283 181.488 C 283 180.204, 278.969 180, 253.663 180 L 224.327 180 220.065 188.600 C 217.064 194.656, 213.724 199.390, 208.775 204.600 C 204.909 208.670, 201.353 212, 200.873 212 C 200.393 212, 200 207.050, 200 201 L 200 190 176.500 190 L 153 190 153 181 L 153 172 174.500 172 L 196 172 196 156.500 L 196 141 174 141 L 152 141 152 133 L 152 125 175.468 125 L 198.937 125 199.218 113.250 L 199.500 101.500 204.873 106.500 C 207.828 109.250, 211.562 113.412, 213.171 115.750 L 216.096 120 247.173 120 L 278.250 120 277.612 116.812 C 277.262 115.059, 274.803 109.077, 272.148 103.519 L 267.321 93.414 273.219 86.957 C 283.671 75.513, 283.955 78.037, 270.436 62.257 C 263.954 54.690, 257.917 47.700, 257.020 46.722 C 255.473 45.036, 254.908 45.288, 246.049 51.626 C 239.651 56.203, 236.314 58.022, 235.452 57.403 C 227.146 51.439, 219.623 46.959, 210.369 42.467 L 199.237 37.065 199.755 26.143 L 200.273 15.222 196.386 14.614 C 194.249 14.280, 185.525 12.883, 177 11.509 C 158.519 8.532, 160.245 8.607, 159.642 10.750 M 147 88.640 C 145.625 88.913, 141.350 90.119, 137.500 91.318 L 130.500 93.500 144.250 93.778 C 151.812 93.931, 164.187 93.931, 171.750 93.778 L 185.500 93.500 178.500 91.154 C 173.277 89.403, 168.708 88.724, 160.500 88.476 C 154.450 88.293, 148.375 88.367, 147 88.640 M 107.786 109.890 C 94.780 123.715, 88.716 138.927, 88.825 157.456 C 88.936 176.484, 94.819 191.228, 107.854 205.147 C 111.899 209.466, 115.611 213, 116.104 213 C 116.621 213, 117 189.544, 117 157.500 C 117 125.456, 116.621 102, 116.104 102 C 115.611 102, 111.868 105.550, 107.786 109.890 M 261.731 128.224 C 260.361 130.576, 257.219 136.550, 254.748 141.500 L 250.254 150.500 257.248 162.750 L 264.242 175 279.371 174.991 L 294.500 174.983 301.318 162.992 C 305.590 155.478, 307.920 150.348, 307.559 149.251 C 307.241 148.288, 303.910 142.325, 300.156 136 L 293.331 124.500 278.776 124.224 L 264.221 123.948 261.731 128.224 M 275.500 140.908 C 271.865 142.464, 269.750 145.770, 269.637 150.068 C 269.495 155.499, 273.205 159, 279.101 159 C 284.579 159, 288 155.579, 288 150.101 C 288 143.295, 281.349 138.403, 275.500 140.908 M 134.056 222.470 C 139.178 225.257, 152.927 227.300, 162.465 226.693 C 171.183 226.139, 181.485 223.790, 183.450 221.909 C 184.021 221.363, 173.851 221.016, 157.950 221.040 C 134.794 221.075, 131.818 221.253, 134.056 222.470" stroke="none" fill="#049c4c" fill-rule="evenodd"/><path d="M 197.698 14.649 C 199.503 15.040, 199.968 15.964, 200.300 19.813 L 200.704 24.500 200.602 19.500 C 200.508 14.907, 200.296 14.487, 198 14.336 C 195.900 14.199, 195.851 14.249, 197.698 14.649 M 131.654 93.235 C 131.019 93.639, 142.838 93.976, 157.917 93.985 C 172.996 93.993, 185.086 93.753, 184.784 93.451 C 183.940 92.607, 132.966 92.400, 131.654 93.235 M 346.243 165.750 L 346.500 231.500 358.750 231.781 L 371 232.062 371 190.316 C 371 155.236, 371.215 148.805, 372.349 150.036 C 373.090 150.841, 385.293 169.626, 399.465 191.780 L 425.233 232.060 437.367 231.780 L 449.500 231.500 449.500 166 L 449.500 100.500 436.761 100.220 L 424.022 99.940 423.761 141.115 L 423.500 182.289 397.153 141.145 L 370.806 100 358.396 100 L 345.986 100 346.243 165.750 M 113.405 104.250 L 111.500 106.500 113.750 104.595 L 116 102.690 116 157.519 L 116 212.349 113.250 209.924 L 110.500 207.500 112.924 210.250 C 114.258 211.762, 115.720 213, 116.174 213 C 116.628 213, 117 188.025, 117 157.500 C 117 126.975, 116.620 102, 116.155 102 C 115.690 102, 114.453 103.013, 113.405 104.250 M 199.382 113.500 C 199.384 120.100, 199.546 122.670, 199.741 119.211 C 199.937 115.752, 199.936 110.352, 199.738 107.211 C 199.540 104.070, 199.380 106.900, 199.382 113.500 M 206 108.500 C 208.987 111.525, 211.657 114, 211.932 114 C 212.207 114, 209.987 111.525, 207 108.500 C 204.013 105.475, 201.343 103, 201.068 103 C 200.793 103, 203.013 105.475, 206 108.500 M 922.667 114.667 C 922.300 115.033, 922 121.333, 922 128.667 L 922 142 915.500 142 L 909 142 909 154.500 L 909 167 915.500 167 L 922 167 922 183.816 C 922 204.538, 923.037 210.829, 927.599 217.783 C 933.988 227.523, 945.756 232.617, 960.009 231.811 L 965.500 231.500 965.780 218.750 L 966.060 206 958.230 206 C 953.473 206, 949.929 205.529, 949.200 204.800 C 948.354 203.954, 948 198.200, 948 185.300 L 948 167 957 167 L 966 167 966 154.500 L 966 142 957 142 L 948 142 948 128 L 948 114 935.667 114 C 928.883 114, 923.033 114.300, 922.667 114.667 M 152.349 133 C 152.349 137.675, 152.522 139.588, 152.732 137.250 C 152.943 134.912, 152.943 131.088, 152.732 128.750 C 152.522 126.412, 152.349 128.325, 152.349 133 M 490.665 142.447 C 480.235 146.735, 473.046 153.149, 467.067 163.500 C 457.414 180.212, 460.230 204.134, 473.592 218.919 C 485.749 232.371, 502.279 237.091, 518.214 231.660 C 523.584 229.830, 525.032 229.641, 525.445 230.717 C 525.847 231.764, 528.676 232, 538.230 231.781 L 550.500 231.500 550.760 186.750 L 551.021 142 538.710 142 C 531.940 142, 525.973 142.422, 525.450 142.938 C 524.858 143.523, 522.430 143.159, 519 141.970 C 510.787 139.125, 498.229 139.336, 490.665 142.447 M 682.489 142.340 C 655.075 152.535, 643.265 182.881, 656.526 209.051 C 660.105 216.114, 669.476 225.129, 677.127 228.869 C 703.728 241.874, 734.828 227.942, 743.582 199.099 C 746.750 188.662, 744.637 172.880, 738.720 162.786 C 735.473 157.247, 725.617 147.865, 720.074 145.038 C 708.965 139.370, 693.465 138.258, 682.489 142.340 M 788.500 141.392 C 786.300 142.085, 783.532 143.171, 782.350 143.807 C 780.619 144.738, 780.089 144.675, 779.631 143.482 C 779.171 142.282, 776.678 142, 766.521 142 L 753.979 142 754.240 186.750 L 754.500 231.500 767 231.500 L 779.500 231.500 780 204.500 C 780.565 174.012, 780.753 173.178, 788.203 168.246 C 791.534 166.041, 793.497 165.500, 798.172 165.500 L 803.994 165.500 803.997 152.750 L 804 140 798.250 140.067 C 795.087 140.104, 790.700 140.700, 788.500 141.392 M 839.665 142.391 C 831.636 145.769, 826.368 149.609, 821.678 155.500 C 809.393 170.932, 807.014 191.795, 815.571 209.045 C 818.625 215.202, 826.369 223.621, 832.704 227.674 C 842.895 234.193, 858.665 235.658, 869.333 231.076 C 875.110 228.594, 875 228.605, 875 230.531 C 875 231.837, 876.796 232.020, 887.250 231.781 L 899.500 231.500 899.760 186.750 L 900.021 142 887.510 142 C 877.273 142, 875 142.262, 875 143.444 C 875 144.604, 874.067 144.467, 870.250 142.745 C 866.665 141.128, 863.047 140.520, 855.500 140.269 C 846.685 139.975, 844.809 140.226, 839.665 142.391 M 562 154.468 L 562 166.959 582.655 167.230 L 603.311 167.500 581.631 187.500 L 559.951 207.500 560.225 219.500 L 560.500 231.500 602.500 231.500 L 644.500 231.500 644.780 218.769 L 645.059 206.037 622.203 205.769 L 599.347 205.500 616.424 189.743 C 625.816 181.077, 635.652 171.963, 638.283 169.490 L 643.065 164.994 642.783 153.747 L 642.500 142.500 602.250 142.239 L 562 141.977 562 154.468 M 30.300 154 C 30.300 157.025, 30.487 158.262, 30.716 156.750 C 30.945 155.238, 30.945 152.762, 30.716 151.250 C 30.487 149.738, 30.300 150.975, 30.300 154 M 499.030 166.583 C 494.069 168.735, 492.034 170.824, 489.368 176.500 C 486.452 182.708, 486.261 190.809, 488.896 196.500 C 495.886 211.598, 515.360 212.182, 522.539 197.510 C 524.857 192.773, 525.172 191.058, 524.833 185.051 C 524.509 179.325, 523.909 177.323, 521.456 173.793 C 516.161 166.173, 506.866 163.184, 499.030 166.583 M 689.500 166.866 C 672.504 174.606, 672.336 199.393, 689.232 206.452 C 696.636 209.546, 707.316 207.849, 712.834 202.702 C 718.009 197.875, 720.694 189.045, 719.119 182.034 C 716.184 168.971, 701.448 161.424, 689.500 166.866 M 846.907 167.328 C 835.352 173.430, 832.383 191.533, 841.276 201.662 C 845.163 206.089, 849.455 208, 855.508 208 C 866.409 208, 874.074 199.324, 874.133 186.918 C 874.179 177.395, 870.120 170.407, 862.500 166.890 C 857.100 164.398, 852.194 164.536, 846.907 167.328 M 153.360 181 C 153.360 186.225, 153.529 188.363, 153.735 185.750 C 153.941 183.137, 153.941 178.863, 153.735 176.250 C 153.529 173.637, 153.360 175.775, 153.360 181 M 263.874 175.277 C 264.303 175.704, 271.594 175.928, 280.077 175.774 L 295.500 175.494 279.297 174.997 C 270.386 174.724, 263.445 174.850, 263.874 175.277 M 200.212 200.750 C 200.096 206.938, 200.395 212, 200.878 212 C 201.360 212, 202.373 211.213, 203.128 210.250 C 204.365 208.672, 204.332 208.632, 202.785 209.844 C 201.191 211.092, 201.047 210.419, 200.747 200.344 L 200.425 189.500 200.212 200.750 M 269 217.605 C 269 218.122, 272.938 222.359, 277.750 227.022 L 286.500 235.500 278 226.530 C 273.325 221.597, 269.387 217.359, 269.250 217.113 C 269.113 216.868, 269 217.089, 269 217.605 M 132.188 221.522 C 132.902 222.235, 183.052 222.281, 183.764 221.569 C 184.077 221.256, 172.483 221, 158 221 C 143.517 221, 131.901 221.235, 132.188 221.522" stroke="none" fill="#c3c3c3" fill-rule="evenodd"/></svg>
      